# xmcd CD database file
#
# Track frame offsets:
#	183
#	13673
#	32195
#	44808
#	61305
#	79450
#	93715
#	109203
#	122550
#	140768
#	155668
#
# Disc length: 2285 seconds
#
# Revision: 4
# Processed by: cddbd v1.5.1PL0 Copyright (c) Steve Scherf et al.
# Submitted via: CDex 1.50
#
DISCID=a208eb0b
DTITLE=Johnny Winter - Raw to the bone
DYEAR=1992
DGENRE=Blues
TTITLE0=Hootchie cootchie man
TTITLE1=Take my choice
TTITLE2=She's mine
TTITLE3=Late on blues
TTITLE4=Lien on your body (mortgage on your soul)
TTITLE5=Once I had a woman
TTITLE6=Unsatisfied mind
TTITLE7=Moth balls
TTITLE8=Alone in my bedroom
TTITLE9=Loudmouth
TTITLE10=Unwelcome in your town
EXTD=Johnny Winter with Calvin "Loudmouth" Johnson\n1967\ncontains previously unissued vintage recordings\n YEAR: 1992
EXTT0=
EXTT1=
EXTT2=
EXTT3=
EXTT4=
EXTT5=
EXTT6=
EXTT7=
EXTT8=
EXTT9=
EXTT10=
PLAYORDER=
